<?xml version="1.0" standalone="no"?>
<!DOCTYPE svg PUBLIC "-//W3C//DTD SVG 20010904//EN"
 "http://www.w3.org/TR/2001/REC-SVG-20010904/DTD/svg10.dtd">
<svg version="1.0" xmlns="http://www.w3.org/2000/svg"
 width="500.000000pt" height="500.000000pt" viewBox="0 0 500.000000 500.000000"
 preserveAspectRatio="xMidYMid meet">

<g transform="translate(0.000000,500.000000) scale(0.100000,-0.100000)"
fill="#000000" stroke="none">
<path d="M2510 2768 c-1 -154 -2 -170 -15 -147 -57 104 -253 120 -346 27 -16
-17 -31 -29 -32 -27 -2 2 -10 16 -19 30 -36 57 -143 77 -205 39 -27 -16 -33
-17 -33 -5 0 12 -14 15 -60 15 l-60 0 0 -175 0 -175 59 0 59 0 4 109 c3 122
17 151 69 151 51 0 59 -20 59 -146 l0 -114 65 0 65 0 0 41 0 42 20 -26 c32
-41 98 -67 168 -67 76 0 124 19 168 66 l34 35 0 -45 0 -46 65 0 65 0 0 67 0
67 68 -67 68 -67 116 0 116 0 4 109 c3 122 17 151 69 151 51 0 59 -20 59 -146
l0 -114 65 0 65 0 0 41 0 41 26 -32 c15 -17 39 -37 55 -45 41 -21 117 -19 157
5 26 16 32 17 32 5 0 -12 14 -15 65 -15 l65 0 0 175 0 175 -64 0 c-36 0 -66
-5 -68 -11 -2 -6 -14 -5 -33 5 -38 20 -117 20 -154 1 -16 -8 -41 -29 -55 -46
-15 -17 -28 -30 -29 -28 -2 2 -10 16 -19 30 -36 57 -143 77 -205 39 l-33 -20
0 135 0 135 -60 0 -60 0 0 -120 0 -120 -67 0 -67 0 -58 -57 -58 -57 0 177 0
177 -65 0 -65 0 0 -172z m380 -235 l0 -137 -70 69 -70 69 67 68 c37 38 69 68
70 68 2 0 3 -62 3 -137z m-521 41 c12 -15 21 -37 21 -49 0 -12 -9 -34 -21 -49
-16 -20 -29 -26 -59 -26 -30 0 -43 6 -59 26 -12 15 -21 37 -21 49 0 12 9 34
21 49 16 20 29 26 59 26 30 0 43 -6 59 -26z m1151 6 c12 -12 20 -33 20 -55 0
-47 -29 -75 -78 -75 -49 0 -74 26 -74 75 0 20 8 45 18 56 24 26 87 26 114 -1z"/>
<path d="M1405 2691 c-128 -79 -124 -269 7 -337 40 -21 117 -18 156 6 26 16
32 17 32 5 0 -12 14 -15 65 -15 l65 0 0 175 0 175 -64 0 c-36 0 -66 -5 -68
-11 -2 -6 -14 -5 -33 5 -42 22 -123 20 -160 -3z m175 -111 c12 -12 20 -33 20
-55 0 -47 -29 -75 -78 -75 -49 0 -74 26 -74 75 0 20 8 45 18 56 24 26 87 26
114 -1z"/>
</g>
</svg>
